<?xml version="1.0" encoding="UTF-8"?>
<svg xmlns="http://www.w3.org/2000/svg" xmlns:xlink="http://www.w3.org/1999/xlink" width="20px" height="20px" viewBox="0 0 20 20" version="1.1">
<g id="surface1">
<path style=" stroke:none;fill-rule:evenodd;fill:rgb(0%,0%,0%);fill-opacity:1;" d="M 2.832031 2.832031 C 1.667969 4.011719 1.667969 5.894531 1.667969 9.667969 L 1.667969 10.332031 C 1.667969 14.101562 1.667969 15.984375 2.832031 17.167969 C 4.011719 18.332031 5.894531 18.332031 9.667969 18.332031 L 10.332031 18.332031 C 14.101562 18.332031 15.984375 18.332031 17.167969 17.167969 C 18.332031 15.988281 18.332031 14.105469 18.332031 10.332031 L 18.332031 9.667969 C 18.332031 5.898438 18.332031 4.015625 17.167969 2.832031 C 15.988281 1.667969 14.105469 1.667969 10.332031 1.667969 L 9.667969 1.667969 C 5.898438 1.667969 4.015625 1.667969 2.832031 2.832031 Z M 4.476562 6.738281 C 4.566406 11.070312 6.734375 13.671875 10.535156 13.671875 L 10.753906 13.671875 L 10.753906 11.195312 C 12.148438 11.332031 13.207031 12.355469 13.628906 13.671875 L 15.601562 13.671875 C 15.398438 12.925781 15.039062 12.226562 14.546875 11.628906 C 14.054688 11.027344 13.445312 10.539062 12.75 10.195312 C 13.371094 9.816406 13.910156 9.3125 14.328125 8.71875 C 14.746094 8.121094 15.039062 7.445312 15.183594 6.734375 L 13.394531 6.734375 C 13.003906 8.109375 11.851562 9.359375 10.753906 9.476562 L 10.753906 6.738281 L 8.960938 6.738281 L 8.960938 11.539062 C 7.851562 11.261719 6.449219 9.917969 6.390625 6.738281 Z M 4.476562 6.738281 "/>
</g>
</svg>
